# xmcd
# 
# Track frame offsets:
#     150
#     16203
#     33750
#     50433
#     66465
#     83331
#     97419
#     116130
#     133516
#     147828
#     169323
#     182294
#     198189
#     213636
# 
# Disc length: 3042
# 
# Revision: 0
# Processed by: cddbd v1.5.2PL0 Copyright (c) Steve Scherf et al.
# Submitted via: BonkEnc v1.0
# 
DISCID=c20be00e
DTITLE=BANDA XXI - PA QUE SIGAN BAILANDO
DYEAR=2006
DGENRE=Salsa
TTITLE0=Candela Pura
TTITLE1=Eso Duele
TTITLE2=Como Hago
TTITLE3=Dime Corazon
TTITLE4=Mi Primavera
TTITLE5=Me Cuesta
TTITLE6=Entra en mi vida
TTITLE7=En los barzos de el
TTITLE8=Pobre Diablo
TTITLE9=Usted
TTITLE10=Ahora te puedes marchar
TTITLE11=La colita
TTITLE12=Verano
TTITLE13=Mi negra
EXTD=YEAR: 2006
EXTT0=
EXTT1=
EXTT2=
EXTT3=
EXTT4=
EXTT5=
EXTT6=
EXTT7=
EXTT8=
EXTT9=
EXTT10=
EXTT11=
EXTT12=
EXTT13=
PLAYORDER=
